<svg xmlns="http://www.w3.org/2000/svg" viewBox="0 0 512 512">
<defs><linearGradient id="g" x1="0" y1="0" x2="1" y2="1"><stop stop-color="#087ff5"/><stop offset="1" stop-color="#31d7c7"/></linearGradient></defs>
<circle cx="256" cy="256" r="250" fill="#05070a"/>
<path d="M125 181c35-43 88-62 132-51 19-28 51-45 87-45 50 0 91 30 108 73 23 7 40 28 40 53 0 31-25 56-56 56H112c-33 0-60-27-60-60 0-32 23-58 53-63 4-8 11-16 20-23z" fill="none" stroke="url(#g)" stroke-width="11" stroke-linecap="round"/>
<g fill="none" stroke="url(#g)" stroke-width="6"><path d="M154 169l20-16 18 15 25-21 21 14 24-25 22 20 27-18 21 21 28-10"/><path d="M194 168v-25m44 16v-28m46 20v-27m48 29v-24"/></g>
<g fill="url(#g)"><circle cx="174" cy="144" r="5"/><circle cx="238" cy="129" r="5"/><circle cx="284" cy="149" r="5"/><circle cx="332" cy="142" r="5"/></g>
<text x="256" y="292" text-anchor="middle" font-family="Arial,sans-serif" font-size="82" font-weight="900" fill="url(#g)" letter-spacing="-5">CLOUDS</text>
<text x="256" y="332" text-anchor="middle" font-family="Arial,sans-serif" font-size="15" font-weight="700" fill="#35d9d0" letter-spacing="4">CSE STUDENTS' ASSOCIATION</text>
<text x="256" y="354" text-anchor="middle" font-family="Arial,sans-serif" font-size="11" font-weight="700" fill="#35d9d0" letter-spacing="3">SAHYADRI</text>
</svg>